<svg width="600" height="800" viewBox="0 0 600 800" fill="none" xmlns="http://www.w3.org/2000/svg">
<g id="Component 2">
<path id="Vector" d="M0 542.35L14.2222 537.851C28.4444 533.353 56.8889 524.356 85.5111 517.976C114.044 511.514 142.844 507.751 171.378 520.511C200 533.353 228.444 562.799 257.067 559.936C285.6 557.073 314.4 521.902 342.933 528.036C371.556 534.171 400 581.611 428.622 599.197C457.156 616.782 485.956 604.513 514.489 591.017C543.111 577.521 571.556 562.799 585.778 555.437L600 548.076V800H585.778C571.556 800 543.111 800 514.489 800C485.956 800 457.156 800 428.622 800C400 800 371.556 800 342.933 800C314.4 800 285.6 800 257.067 800C228.444 800 200 800 171.378 800C142.844 800 114.044 800 85.5111 800C56.8889 800 28.4444 800 14.2222 800H0L0 542.35Z" fill="#171921"/>
<path id="Vector_2" d="M600 642.08L585.778 665.555C571.556 688.948 543.111 735.897 514.489 747.021C485.956 758.227 457.156 733.689 428.622 728.618C400 723.628 371.556 738.024 342.933 730.172C314.4 722.238 285.6 691.974 257.067 671.771C228.444 651.65 200 641.507 171.378 660.729C142.844 679.95 114.044 728.536 85.5111 716.757C56.8889 705.061 28.4444 633.083 14.2222 597.093L-4.47035e-06 561.104V408.15H14.2222C28.4444 408.15 56.8889 408.15 85.5111 408.15C114.044 408.15 142.844 408.15 171.378 408.15C200 408.15 228.444 408.15 257.067 408.15C285.6 408.15 314.4 408.15 342.933 408.15C371.556 408.15 400 408.15 428.622 408.15C457.156 408.15 485.956 408.15 514.489 408.15C543.111 408.15 571.556 408.15 585.778 408.15H600V642.08Z" fill="#181818"/>
<path id="Vector_3" d="M600 426.145L585.778 431.052C571.556 435.96 543.111 445.775 514.489 489.698C485.956 533.54 457.156 611.571 428.622 662.283C400 712.995 371.556 736.388 342.933 697.291C314.4 658.193 285.6 556.442 257.067 547.608C228.444 538.775 200 622.695 171.378 623.431C142.844 624.085 114.044 541.474 85.5111 499.923C56.8889 458.29 28.4444 457.799 14.2222 457.472L-4.47035e-06 457.226L-4.47035e-06 238.019H14.2222C28.4444 238.019 56.8889 238.019 85.5111 238.019C114.044 238.019 142.844 238.019 171.378 238.019C200 238.019 228.444 238.019 257.067 238.019C285.6 238.019 314.4 238.019 342.933 238.019C371.556 238.019 400 238.019 428.622 238.019C457.156 238.019 485.956 238.019 514.489 238.019C543.111 238.019 571.556 238.019 585.778 238.019H600L600 426.145Z" fill="#1D0901"/>
<path id="Vector_4" d="M600 486.672L585.778 502.867C571.556 519.144 543.111 551.534 514.489 527.978C485.956 504.421 457.156 424.754 428.622 391.382C400 358.011 371.556 370.77 342.933 400.216C314.4 429.662 285.6 475.793 257.067 510.392C228.444 544.991 200 568.22 171.378 546.79C142.844 525.36 114.044 459.435 85.5111 458.617C56.8889 457.799 28.4444 522.089 14.2222 554.315L-4.47035e-06 586.46L-4.47035e-06 62.9811H14.2222C28.4444 62.9811 56.8889 62.9811 85.5111 62.9811C114.044 62.9811 142.844 62.9811 171.378 62.9811C200 62.9811 228.444 62.9811 257.067 62.9811C285.6 62.9811 314.4 62.9811 342.933 62.9811C371.556 62.9811 400 62.9811 428.622 62.9811C457.156 62.9811 485.956 62.9811 514.489 62.9811C543.111 62.9811 571.556 62.9811 585.778 62.9811H600L600 486.672Z" fill="#2C0D02"/>
<path id="Vector_5" d="M0 223.297L14.2222 254.624C28.4444 286.032 56.8889 348.686 85.5111 383.203C114.044 417.72 142.844 423.936 171.378 388.52C200 353.103 228.444 275.89 257.067 252.333C285.6 228.777 314.4 258.713 342.933 279.98C371.556 301.246 400 313.842 428.622 323.903C457.156 333.963 485.956 341.652 514.489 352.776C543.111 363.982 571.556 378.704 585.778 386.066L600 393.427V62.9811H585.778C571.556 62.9811 543.111 62.9811 514.489 62.9811C485.956 62.9811 457.156 62.9811 428.622 62.9811C400 62.9811 371.556 62.9811 342.933 62.9811C314.4 62.9811 285.6 62.9811 257.067 62.9811C228.444 62.9811 200 62.9811 171.378 62.9811C142.844 62.9811 114.044 62.9811 85.5111 62.9811C56.8889 62.9811 28.4444 62.9811 14.2222 62.9811H0L0 223.297Z" fill="#1D0901"/>
<path id="Vector_6" d="M600 256.014L585.778 248.08C571.556 240.228 543.111 224.36 514.489 227.141C485.956 229.84 457.156 251.106 428.622 258.304C400 265.584 371.556 258.713 342.933 250.943C314.4 243.172 285.6 234.502 257.067 221.006C228.444 207.51 200 189.189 171.378 176.429C142.844 163.587 114.044 156.226 85.5111 169.476C56.8889 182.645 28.4444 216.508 14.2222 233.357L-4.47035e-06 250.288V62.9811H14.2222C28.4444 62.9811 56.8889 62.9811 85.5111 62.9811C114.044 62.9811 142.844 62.9811 171.378 62.9811C200 62.9811 228.444 62.9811 257.067 62.9811C285.6 62.9811 314.4 62.9811 342.933 62.9811C371.556 62.9811 400 62.9811 428.622 62.9811C457.156 62.9811 485.956 62.9811 514.489 62.9811C543.111 62.9811 571.556 62.9811 585.778 62.9811H600V256.014Z" fill="#181818"/>
<path id="Vector_7" d="M600 199.576L585.778 179.373C571.556 159.252 543.111 118.846 514.489 113.448C485.956 107.968 457.156 137.413 428.622 141.748C400 146.165 371.556 125.39 342.933 118.355C314.4 111.239 285.6 117.783 257.067 115.165C228.444 112.63 200 100.852 171.378 109.44C142.844 118.028 114.044 146.983 85.5111 157.453C56.8889 167.922 28.4444 160.07 14.2222 156.062L-4.47035e-06 152.136V2.86102e-06H14.2222C28.4444 2.86102e-06 56.8889 2.86102e-06 85.5111 2.86102e-06C114.044 2.86102e-06 142.844 2.86102e-06 171.378 2.86102e-06C200 2.86102e-06 228.444 2.86102e-06 257.067 2.86102e-06C285.6 2.86102e-06 314.4 2.86102e-06 342.933 2.86102e-06C371.556 2.86102e-06 400 2.86102e-06 428.622 2.86102e-06C457.156 2.86102e-06 485.956 2.86102e-06 514.489 2.86102e-06C543.111 2.86102e-06 571.556 2.86102e-06 585.778 2.86102e-06H600V199.576Z" fill="#171921"/>
</g>
</svg>
