<svg width="1280" height="7948" viewBox="0 0 1280 7948" fill="none" xmlns="http://www.w3.org/2000/svg">
<g id="darkmode">
<path id="Vector_9" d="M-0.00012207 6875.12L30.5813 6934.81C61.152 6994.71 122.315 7114.09 183.179 7103.52C244.195 7092.74 304.782 6951.8 365.795 6928.39C426.667 6904.75 487.822 6998.85 548.693 7085.9C609.707 7172.95 670.293 7252.96 731.307 7192.85C792.178 7132.75 853.333 6932.53 914.205 6843.41C975.218 6754.29 1035.8 6776.25 1096.82 6813.36C1157.69 6850.25 1218.84 6902.07 1249.42 6927.97L1280 6953.88L1280 7671H1249.42C1218.84 7671 1157.69 7671 1096.82 7671C1035.8 7671 975.218 7671 914.205 7671C853.333 7671 792.178 7671 731.307 7671C670.293 7671 609.707 7671 548.693 7671C487.822 7671 426.667 7671 365.795 7671C304.782 7671 244.195 7671 183.179 7671C122.315 7671 61.152 7671 30.5813 7671H-0.00012207L-0.00012207 6875.12Z" fill="#53716D"/>
<path id="Vector_4" d="M1280 7365L1249.6 7356.04C1219.2 7347.08 1158.4 7329.16 1097.39 7329.66C1036.48 7330.16 975.253 7349.07 914.347 7344.29C853.333 7339.42 792.533 7310.94 731.52 7299.1C670.613 7287.35 609.387 7292.33 548.48 7284.86C487.467 7277.39 426.667 7257.48 365.653 7230.11C304.747 7202.73 243.52 7167.89 182.613 7142C121.6 7116.12 60.8 7099.19 30.4 7090.73L0 7082.27V6475H30.4C60.8 6475 121.6 6475 182.613 6475C243.52 6475 304.747 6475 365.653 6475C426.667 6475 487.467 6475 548.48 6475C609.387 6475 670.613 6475 731.52 6475C792.533 6475 853.333 6475 914.347 6475C975.253 6475 1036.48 6475 1097.39 6475C1158.4 6475 1219.2 6475 1249.6 6475H1280V7365Z" fill="#1D2028"/>
<path id="Vector" d="M1280 6744.31L1249.6 6723.71C1219.2 6703.2 1158.4 6661.99 1097.39 6650.45C1036.48 6638.8 975.253 6656.72 914.347 6681.8C853.333 6706.79 792.533 6739.04 731.52 6761.93C670.613 6784.83 609.387 6798.36 548.48 6772.68C487.467 6747 426.667 6681.9 365.653 6659.7C304.747 6637.51 243.52 6658.01 182.613 6690.56C121.6 6723.11 60.8 6767.51 30.4 6789.8L0 6812V5947H30.4C60.8 5947 121.6 5947 182.613 5947C243.52 5947 304.747 5947 365.653 5947C426.667 5947 487.467 5947 548.48 5947C609.387 5947 670.613 5947 731.52 5947C792.533 5947 853.333 5947 914.347 5947C975.253 5947 1036.48 5947 1097.39 5947C1158.4 5947 1219.2 5947 1249.6 5947H1280V6744.31Z" fill="#C37246"/>
<path id="Vector_2" d="M1280 5942.46L1249.42 5968.21C1218.85 5993.71 1157.69 6045.25 1096.82 6142.19C1035.8 6239.13 975.218 6381.5 914.205 6366.62C853.333 6351.48 792.178 6178.84 731.307 6105.01C670.293 6030.9 609.707 6055.86 548.693 6045.25C487.822 6034.62 426.667 5988.4 365.795 5975.13C304.782 5961.84 244.195 5981.5 183.182 6069.41C122.311 6157.6 61.1555 6314.3 30.5777 6392.65L0 6471V5390H30.5777C61.1555 5390 122.311 5390 183.182 5390C244.195 5390 304.782 5390 365.795 5390C426.667 5390 487.822 5390 548.693 5390C609.707 5390 670.293 5390 731.307 5390C792.178 5390 853.333 5390 914.205 5390C975.218 5390 1035.8 5390 1096.82 5390C1157.69 5390 1218.85 5390 1249.42 5390H1280V5942.46Z" fill="#E8B7A6"/>
<path id="Vector_3" d="M1280 6201.44L1237.33 6201.97C1194.67 6202.24 1109.33 6203.31 1024 6076.47C938.667 5949.64 853.333 5695.44 768 5557.44C682.667 5419.71 597.333 5398.44 512 5423.17C426.667 5448.15 341.333 5518.89 256 5573.39C170.667 5627.9 85.3334 5666.19 42.6667 5685.07L0 5704.21V4973H42.6667C85.3334 4973 170.667 4973 256 4973C341.333 4973 426.667 4973 512 4973C597.333 4973 682.667 4973 768 4973C853.333 4973 938.667 4973 1024 4973C1109.33 4973 1194.67 4973 1237.33 4973H1280V6201.44Z" fill="#53716D"/>
<path id="Vector_4_2" d="M1280 5346L1249.6 5337.04C1219.2 5328.08 1158.4 5310.16 1097.39 5310.66C1036.48 5311.16 975.253 5330.07 914.347 5325.29C853.333 5320.42 792.533 5291.94 731.52 5280.1C670.613 5268.35 609.387 5273.33 548.48 5265.86C487.467 5258.39 426.667 5238.48 365.653 5211.11C304.747 5183.73 243.52 5148.89 182.613 5123C121.6 5097.12 60.8 5080.19 30.4 5071.73L0 5063.27V4456H30.4C60.8 4456 121.6 4456 182.613 4456C243.52 4456 304.747 4456 365.653 4456C426.667 4456 487.467 4456 548.48 4456C609.387 4456 670.613 4456 731.52 4456C792.533 4456 853.333 4456 914.347 4456C975.253 4456 1036.48 4456 1097.39 4456C1158.4 4456 1219.2 4456 1249.6 4456H1280V5346Z" fill="#565758"/>
<path id="Vector_6" d="M1280 5179L1249.42 5163.8C1218.85 5148.87 1157.69 5118.47 1096.82 5107.53C1035.8 5096.33 975.218 5104.33 914.205 5048.87C853.333 4993.13 792.178 4874.2 731.307 4797.13C670.293 4720.33 609.707 4685.67 548.693 4755.53C487.822 4825.13 426.667 4999.53 365.795 5000.87C304.782 5002.2 244.195 4830.47 183.182 4745.67C122.312 4660.87 61.1556 4662.47 30.5777 4663.53L0 4664.33V3987H30.5777C61.1556 3987 122.312 3987 183.182 3987C244.195 3987 304.782 3987 365.795 3987C426.667 3987 487.822 3987 548.693 3987C609.707 3987 670.293 3987 731.307 3987C792.178 3987 853.333 3987 914.205 3987C975.218 3987 1035.8 3987 1096.82 3987C1157.69 3987 1218.85 3987 1249.42 3987H1280V5179Z" fill="#1D2028"/>
<path id="Vector_7" d="M1280 4173.74L1258.67 4174.44C1237.33 4175.04 1194.67 4176.44 1152 4165.25C1109.33 4154.06 1066.67 4130.48 1024 4108.79C981.333 4087.11 938.667 4067.53 896 4082.62C853.333 4097.8 810.667 4147.76 768 4184.03C725.333 4220.4 682.667 4242.98 640 4264.16C597.333 4285.35 554.667 4304.93 512 4284.15C469.333 4263.37 426.667 4202.02 384 4152.76C341.333 4103.5 298.667 4066.13 256 4072.13C213.333 4078.12 170.667 4127.48 128 4139.27C85.3334 4151.06 42.6667 4125.48 21.3334 4112.59L0 4099.8V3863H21.3334C42.6667 3863 85.3334 3863 128 3863C170.667 3863 213.333 3863 256 3863C298.667 3863 341.333 3863 384 3863C426.667 3863 469.333 3863 512 3863C554.667 3863 597.333 3863 640 3863C682.667 3863 725.333 3863 768 3863C810.667 3863 853.333 3863 896 3863C938.667 3863 981.333 3863 1024 3863C1066.67 3863 1109.33 3863 1152 3863C1194.67 3863 1237.33 3863 1258.67 3863H1280V4173.74Z" fill="#565758"/>
<path id="Vector_8" d="M1280 3850L1237.33 3875C1194.67 3900 1109.33 3950 1024 3959.2C938.667 3968.3 853.333 3936.7 768 3937.3C682.667 3938 597.333 3971 512 3956.3C426.667 3941.7 341.333 3879.3 256 3884.5C170.667 3889.7 85.3334 3962.3 42.6667 3998.7L0 4035V3631H42.6667C85.3334 3631 170.667 3631 256 3631C341.333 3631 426.667 3631 512 3631C597.333 3631 682.667 3631 768 3631C853.333 3631 938.667 3631 1024 3631C1109.33 3631 1194.67 3631 1237.33 3631H1280V3850Z" fill="#D69D60"/>
<path id="Vector_9_2" d="M1280 3979.88L1249.42 3920.19C1218.85 3860.29 1157.69 3740.91 1096.82 3751.48C1035.8 3762.26 975.218 3903.2 914.205 3926.61C853.333 3950.25 792.178 3856.15 731.307 3769.1C670.293 3682.05 609.707 3602.04 548.693 3662.15C487.822 3722.25 426.667 3922.47 365.795 4011.59C304.782 4100.71 244.195 4078.75 183.182 4041.64C122.311 4004.75 61.1555 3952.93 30.5777 3927.03L0 3901.12V3184H30.5777C61.1555 3184 122.311 3184 183.182 3184C244.195 3184 304.782 3184 365.795 3184C426.667 3184 487.822 3184 548.693 3184C609.707 3184 670.293 3184 731.307 3184C792.178 3184 853.333 3184 914.205 3184C975.218 3184 1035.8 3184 1096.82 3184C1157.69 3184 1218.85 3184 1249.42 3184H1280V3979.88Z" fill="#53716D"/>
<path id="Vector_10" d="M1280 3459.22L1249.42 3471.01C1218.85 3482.8 1157.69 3506.39 1096.82 3537.37C1035.8 3568.18 975.218 3606.55 914.205 3561.11C853.333 3515.82 792.178 3386.88 731.307 3373.05C670.293 3359.05 609.707 3460.32 548.693 3503.72C487.822 3547.27 426.667 3533.12 365.795 3460C304.782 3386.88 244.195 3254.8 183.182 3196.62C122.311 3138.44 61.1555 3154.17 30.5777 3162.03L0 3169.89V2890H30.5777C61.1555 2890 122.311 2890 183.182 2890C244.195 2890 304.782 2890 365.795 2890C426.667 2890 487.822 2890 548.693 2890C609.707 2890 670.293 2890 731.307 2890C792.178 2890 853.333 2890 914.205 2890C975.218 2890 1035.8 2890 1096.82 2890C1157.69 2890 1218.85 2890 1249.42 2890H1280V3459.22Z" fill="#D69D60"/>
<path id="Vector_11" d="M1280 3181L1253.26 3161.3C1226.38 3141.7 1172.91 3102.3 1119.57 3099.7C1066.24 3097 1013.05 3131 959.715 3112.8C906.382 3094.7 852.907 3024.3 799.573 2993.8C746.24 2963.3 693.049 2972.7 639.715 2985.8C586.382 2999 532.907 3016 479.573 3055.2C426.24 3094.3 373.049 3155.7 319.715 3179.5C266.382 3203.3 212.907 3189.7 159.573 3198.5C106.24 3207.3 53.0489 3238.7 26.5956 3254.3L0 3270V2807H26.5956C53.0489 2807 106.24 2807 159.573 2807C212.907 2807 266.382 2807 319.715 2807C373.049 2807 426.24 2807 479.573 2807C532.907 2807 586.382 2807 639.715 2807C693.049 2807 746.24 2807 799.573 2807C852.907 2807 906.382 2807 959.715 2807C1013.05 2807 1066.24 2807 1119.57 2807C1172.91 2807 1226.38 2807 1253.26 2807H1280V3181Z" fill="#565758"/>
<path id="Vector_12" d="M0 2331.72L42.6667 2281.67C85.3333 2231.53 170.667 2131.44 256 2112.34C341.333 2093.23 426.667 2155.32 512 2189.64C597.333 2223.97 682.667 2230.53 768 2218C853.333 2205.36 938.667 2173.52 1024 2147.36C1109.33 2121.09 1194.67 2100.6 1237.33 2090.25L1280 2080V2866H1237.33C1194.67 2866 1109.33 2866 1024 2866C938.667 2866 853.333 2866 768 2866C682.667 2866 597.333 2866 512 2866C426.667 2866 341.333 2866 256 2866C170.667 2866 85.3333 2866 42.6667 2866H0V2331.72Z" fill="#565758"/>
<path id="layer6" d="M0 2607.59L53.3333 2658.16C106.667 2708.83 213.333 2809.97 320 2798.03C426.667 2786.08 533.333 2661.05 640 2631.68C746.667 2602.31 853.333 2668.61 960 2633.17C1066.67 2597.63 1173.33 2460.25 1226.67 2391.56L1280 2322.87V1852H1226.67C1173.33 1852 1066.67 1852 960 1852C853.333 1852 746.667 1852 640 1852C533.333 1852 426.667 1852 320 1852C213.333 1852 106.667 1852 53.3333 1852H0V2607.59Z" fill="#192124"/>
<path id="layer5" d="M0 2401.82L42.6667 2410.62C85.3333 2419.51 170.667 2437.11 256 2455.61C341.333 2474.1 426.667 2493.5 512 2441.31C597.333 2389.12 682.667 2265.55 768 2248.55C853.333 2231.55 938.667 2321.13 1024 2314.54C1109.33 2307.84 1194.67 2204.86 1237.33 2153.37L1280 2101.88V1498H1237.33C1194.67 1498 1109.33 1498 1024 1498C938.667 1498 853.333 1498 768 1498C682.667 1498 597.333 1498 512 1498C426.667 1498 341.333 1498 256 1498C170.667 1498 85.3333 1498 42.6667 1498H0V2401.82Z" fill="#181818"/>
<path id="layer4" d="M0 2264L42.6667 2206.22C85.3333 2148.44 170.667 2032.89 256 1965.85C341.333 1898.7 426.667 1880.17 512 1880.67C597.333 1881.17 682.667 1900.7 768 1931.28C853.333 1961.86 938.667 2003.3 1024 1969.83C1109.33 1936.26 1194.67 1827.68 1237.33 1773.39L1280 1719.09V1223H1237.33C1194.67 1223 1109.33 1223 1024 1223C938.667 1223 853.333 1223 768 1223C682.667 1223 597.333 1223 512 1223C426.667 1223 341.333 1223 256 1223C170.667 1223 85.3333 1223 42.6667 1223H0V2264Z" fill="#1D2028"/>
<path id="layer3" d="M0 1350L42.6667 1390.2C85.3333 1430.3 170.667 1510.7 256 1520.2C341.333 1529.7 426.667 1468.3 512 1474.8C597.333 1481.3 682.667 1555.7 768 1639.8C853.333 1724 938.667 1818 1024 1893C1109.33 1968 1194.67 2024 1237.33 2052L1280 2080V682H1237.33C1194.67 682 1109.33 682 1024 682C938.667 682 853.333 682 768 682C682.667 682 597.333 682 512 682C426.667 682 341.333 682 256 682C170.667 682 85.3333 682 42.6667 682H0V1350Z" fill="#181818"/>
<path id="layer2" d="M0 1335L42.6667 1296.12C85.3333 1257.23 170.667 1179.47 256 1187.24C341.333 1195.12 426.667 1288.44 512 1312.07C597.333 1335.7 682.667 1289.44 768 1276.67C853.333 1263.91 938.667 1284.45 1024 1208.08C1109.33 1131.61 1194.67 958.129 1237.33 871.389L1280 784.649V0H1237.33C1194.67 0 1109.33 0 1024 0C938.667 0 853.333 0 768 0C682.667 0 597.333 0 512 0C426.667 0 341.333 0 256 0C170.667 0 85.3333 0 42.6667 0H0V1335Z" fill="#192124"/>
<path id="layer1" d="M0 866.829L42.6667 879.027C85.3333 891.124 170.667 915.519 256 906.621C341.333 897.823 426.667 855.831 512 862.33C597.333 868.829 682.667 923.818 768 1010.1C853.333 1096.48 938.667 1214.06 1024 1266.25C1109.33 1318.44 1194.67 1305.04 1237.33 1298.44L1280 1291.75L1280 0L1237.33 0C1194.67 0 1109.33 0 1024 0C938.667 0 853.333 0 768 0C682.667 0 597.333 0 512 0C426.667 0 341.333 0 256 0C170.667 0 85.3333 0 42.6667 0L0 0L0 866.829Z" fill="#181818"/>
<path id="Vector_13" d="M-0.00012207 882L35.52 852.939C71.1467 823.793 142.187 765.671 213.333 754.91C284.48 744.15 355.52 780.921 426.667 784.565C497.813 788.208 568.853 758.892 640 695.009C711.147 631.21 782.187 532.928 853.333 479.719C924.48 426.427 995.52 418.293 1066.67 479.296C1137.81 540.299 1208.85 670.438 1244.48 735.593L1280 800.663V0H1244.48C1208.85 0 1137.81 0 1066.67 0C995.52 0 924.48 0 853.333 0C782.187 0 711.147 0 640 0C568.853 0 497.813 0 426.667 0C355.52 0 284.48 0 213.333 0C142.187 0 71.1467 0 35.52 0H-0.00012207V882Z" fill="#192124"/>
<path id="Vector_14" d="M0 322.493L21.3334 335.788C42.6667 349.173 85.3334 375.764 128 387.172C170.667 398.58 213.334 394.628 256 394.088C298.667 393.46 341.334 396.155 384 397.502C426.667 398.85 469.334 398.85 512 378.818C554.667 358.695 597.334 318.631 640.001 291.682C682.667 264.732 725.334 250.898 768.001 231.045C810.667 211.102 853.334 185.052 896.001 170.679C938.667 156.306 981.334 153.611 1024 185.681C1066.67 217.661 1109.33 284.495 1152 322.673C1194.67 360.851 1237.33 370.374 1258.67 375.224L1280 379.985V0H1258.67C1237.33 0 1194.67 0 1152 0C1109.33 0 1066.67 0 1024 0C981.334 0 938.667 0 896.001 0C853.334 0 810.667 0 768.001 0C725.334 0 682.667 0 640.001 0C597.334 0 554.667 0 512 0C469.334 0 426.667 0 384 0C341.334 0 298.667 0 256 0C213.334 0 170.667 0 128 0C85.3334 0 42.6667 0 21.3334 0H0V322.493Z" fill="#1D2028"/>
<path id="Vector_5" d="M-0.00012207 7672.73L30.5813 7614.21C61.152 7555.69 122.315 7438.66 183.179 7427.62C244.195 7416.74 304.782 7511.68 365.795 7485.97C426.667 7460.09 487.822 7313.39 548.693 7263.61C609.707 7213.99 670.293 7261.14 731.307 7292.29C792.178 7323.28 853.333 7338.11 914.205 7335.97C975.218 7333.66 1035.8 7314.54 1096.82 7339.43C1157.69 7364.49 1218.84 7433.72 1249.42 7468.33L1280 7502.95V7948H1249.42C1218.84 7948 1157.69 7948 1096.82 7948C1035.8 7948 975.218 7948 914.205 7948C853.333 7948 792.178 7948 731.307 7948C670.293 7948 609.707 7948 548.693 7948C487.822 7948 426.667 7948 365.795 7948C304.782 7948 244.195 7948 183.179 7948C122.315 7948 61.152 7948 30.5813 7948H-0.00012207V7672.73Z" fill="#565758"/>
</g>
</svg>
