<svg width="1282" height="16361" viewBox="0 0 1282 16361" fill="none" xmlns="http://www.w3.org/2000/svg">
<g id="longcool">
<path id="Vector" opacity="0.5" d="M1 16361L54.3 16352.5C107.7 16344 214.3 16327 321 16251.8C427.7 16176.7 534.3 16043.3 641 15977.7C747.7 15912 854.3 15914 961 15944.3C1067.7 15974.7 1174.3 16033.3 1227.7 16062.7L1281 16092V15447H1227.7C1174.3 15447 1067.7 15447 961 15447C854.3 15447 747.7 15447 641 15447C534.3 15447 427.7 15447 321 15447C214.3 15447 107.7 15447 54.3 15447H1V16361Z" fill="url(#paint0_linear_114_90)"/>
<path id="Vector_2" d="M0 15641L30.5 15653.7C61 15666.3 122 15691.7 183 15715C244 15738.3 305 15759.7 366 15754.5C427 15749.3 488 15717.7 548.8 15715.3C609.7 15713 670.3 15740 731.2 15773.3C792 15806.7 853 15846.3 914 15832.2C975 15818 1036 15750 1097 15753C1158 15756 1219 15830 1249.5 15867L1280 15904V15324H1249.5C1219 15324 1158 15324 1097 15324C1036 15324 975 15324 914 15324C853 15324 792 15324 731.2 15324C670.3 15324 609.7 15324 548.8 15324C488 15324 427 15324 366 15324C305 15324 244 15324 183 15324C122 15324 61 15324 30.5 15324H0V15641Z" fill="url(#paint1_linear_114_90)"/>
<path id="Vector_3" d="M1 15643L54.3 15651.8C107.7 15660.7 214.3 15678.3 321 15624.2C427.7 15570 534.3 15444 641 15396.8C747.7 15349.7 854.3 15381.3 961 15417.8C1067.7 15454.3 1174.3 15495.7 1227.7 15516.3L1281 15537V14832H1227.7C1174.3 14832 1067.7 14832 961 14832C854.3 14832 747.7 14832 641 14832C534.3 14832 427.7 14832 321 14832C214.3 14832 107.7 14832 54.3 14832H1V15643Z" fill="url(#paint2_linear_114_90)"/>
<path id="Vector_4" d="M1 15076.5L43.7 15037.2C86.3 14997.8 171.7 14919.2 257 14914.3C342.3 14909.5 427.699 14978.5 512.999 15059.7C598.299 15140.8 683.699 15234.2 768.999 15256.5C854.299 15278.8 939.701 15230.2 1025 15215.5C1110.3 15200.8 1195.7 15220.2 1238.3 15229.8L1281 15239.5V13642H1V15076.5Z" fill="url(#paint3_linear_114_90)"/>
<path id="Vector_5" d="M0 14656L30.5 14670.5C61 14685 122 14714 183 14719.3C244 14724.7 305 14706.3 366 14701.5C427 14696.7 488 14705.3 548.8 14726C609.7 14746.7 670.3 14779.3 731.2 14819.3C792 14859.3 853 14906.7 914 14921.5C975 14936.3 1036 14918.7 1097 14923C1158 14927.3 1219 14953.7 1249.5 14966.8L1280 14980V13326C1280 13326 0 13326 0 14061.5C0 14797 0 14656 0 14656Z" fill="url(#paint4_linear_114_90)"/>
<path id="Vector_6" d="M0 14831.5L42.7 14805C85.3 14778.5 170.7 14725.5 256 14686.2C341.3 14646.8 426.7 14621.2 512 14566.5C597.3 14511.8 682.7 14428.2 768 14416C853.3 14403.8 938.7 14463.2 1024 14455.2C1109.3 14447.2 1194.7 14371.8 1237.3 14334.2L1280 14295.5V13498C1194.7 13498 42.6 13498 0 13498V14831.5Z" fill="url(#paint5_linear_114_90)"/>
<path id="Vector_7" d="M1280 13546.9C1280 13625.2 1249.4 13700.4 1194.73 13756.4L1120 13833C1024 13925.5 1109.3 14052.2 1024 14106.8C938.701 14161.5 742.8 14104.7 657.5 14114.5C572.2 14112.7 341.3 14302.8 256 14377C170.7 14451.2 85.3001 14493.8 42.7001 14515.2L0.00012207 14536.5V13242H1280V13546.9Z" fill="url(#paint6_linear_114_90)"/>
<path id="Vector_8" d="M1 14084L43.7 14077.5C86.3 14071 171.7 14058 257 14043.2C342.3 14028.3 427.7 14011.7 513 13927.3C598.3 13843 683.7 13691 769 13647.3C854.3 13603.7 952.5 13597 1031.5 13567.5C1110.5 13538 1170.5 13500.5 1194 13457L1281 13319V13053H1238.3C1195.7 13053 1110.3 13053 1025 13053C939.7 13053 854.3 13053 769 13053C683.7 13053 598.3 13053 513 13053C427.7 13053 342.3 13053 257 13053C171.7 13053 86.3 13053 43.7 13053H1V14084Z" fill="#2C3E4F"/>
<path id="Vector_9" d="M1 13642L43.7 13626.5C86.3 13611 171.7 13580 257 13569.5C342.3 13559 427.7 13569 513 13526.3C598.3 13483.7 683.7 13388.3 769 13327.3C854.3 13266.3 939.7 13239.7 1025 13214.3C1110.3 13189 1195.7 13165 1238.3 13153L1281 13141V12450.5C1195.7 12450.5 43.6 12450.5 1 12450.5V13642Z" fill="url(#paint7_linear_114_90)"/>
<path id="Vector_10" d="M1 12898L43.7 12953.3C86.3 13008.7 171.7 13119.3 257 13183C342.3 13246.7 427.7 13263.3 513 13274.8C598.3 13286.3 683.7 13292.7 769 13263.8C854.3 13235 939.7 13171 1025 13174.3C1110.3 13177.7 1195.7 13248.3 1238.3 13283.7L1281 13319V12309H1238.3C1195.7 12309 1110.3 12309 1025 12309C939.7 12309 854.3 12309 769 12309C683.7 12309 598.3 12309 513 12309C427.7 12309 342.3 12309 257 12309C171.7 12309 86.3 12309 43.7 12309H1V12898Z" fill="url(#paint8_linear_114_90)" fill-opacity="0.998229"/>
<path id="Vector_11" d="M1 12662.5L31.5 12624.5C62 12586.5 123 12510.5 184 12515.5C245 12520.5 306 12606.5 367 12674.5C428 12742.5 489 12792.5 549.8 12763.5C610.7 12734.5 671.3 12626.5 732.2 12596.5C793 12566.5 854 12614.5 915 12601.5C976 12588.5 1037 12514.5 1098 12479.7C1159 12444.8 1220 12449.2 1250.5 12451.3L1281 12453.5V11444C1220 11444 62 11444 1 11444V12662.5Z" fill="url(#paint9_linear_114_90)"/>
<path id="Vector_12" d="M1281 12113L1245.5 12139.2C1210 12165.3 1139 12217.7 1067.8 12229C996.7 12240.3 925.3 12210.7 854.2 12198.5C783 12186.3 712 12191.7 641 12173.8C570 12156 499 12115 427.8 12090.5C356.7 12066 285.3 12058 214.2 12095.2C143 12132.3 72 12214.7 36.5 12255.8L1 12297V11671H36.5C72 11671 143 11671 214.2 11671C285.3 11671 356.7 11671 427.8 11671C499 11671 570 11671 641 11671C712 11671 783 11671 854.2 11671C925.3 11671 996.7 11671 1067.8 11671C1139 11671 1210 11671 1245.5 11671H1281V12113Z" fill="url(#paint10_linear_114_90)"/>
<path id="Vector_13" d="M1 11984L31.5 11984.8C62 11985.7 123 11987.3 184 11965.8C245 11944.3 306 11899.7 367 11855.3C428 11811 489 11767 549.8 11775.3C610.7 11783.7 671.3 11844.3 732.2 11842C793 11839.7 854 11774.3 915 11737.2C976 11700 1037 11691 1098 11723.8C1159 11756.7 1220 11831.3 1250.5 11868.7L1281 11906V11069.5C1220 11069.5 62.0001 11069.5 1.00011 11069.5L1 11984Z" fill="url(#paint11_linear_114_90)"/>
<path id="Vector_14" d="M1 11642L36.5 11594C72 11546 143 11450 214.2 11430.8C285.3 11411.7 356.7 11469.3 427.8 11510.2C499 11551 570 11575 641 11544.8C712 11514.7 783 11430.3 854.2 11434.2C925.3 11438 996.7 11530 1067.8 11541.5C1139 11553 1210 11484 1245.5 11449.5L1281 11415V11028H1245.5C1210 11028 1139 11028 1067.8 11028C996.7 11028 925.3 11028 854.2 11028C783 11028 712 11028 641 11028C570 11028 499 11028 427.8 11028C356.7 11028 285.3 11028 214.2 11028C143 11028 72 11028 36.5 11028H1V11642Z" fill="url(#paint12_linear_114_90)"/>
<path id="Union" fill-rule="evenodd" clip-rule="evenodd" d="M1238.33 10431.7L1281 10481.7V11016V11087.9L1250.07 11093.9L1249.27 11094.1C1219.13 11100.1 1158.87 11112.2 1098.6 11147.9C1070.59 11164.1 1042.8 11185.3 1015.14 11206.4C981.685 11232 948.409 11257.3 915.133 11273.7C854.333 11303.7 793.533 11303.7 732.733 11285.7C702.333 11276.7 671.667 11263.3 641 11249.8C610.334 11236.3 579.667 11222.8 549.267 11213.8C488.467 11195.8 427.667 11195.8 366.867 11219.8C350.749 11226.2 334.631 11234.2 318.493 11242.2C273.756 11264.6 228.866 11287 183.4 11273.7C122.6 11255.8 61.8001 11171.8 31.9334 11129.9L1.00006 11087.9L1 11016V10230L43.6667 10240.2C45.0465 10240.6 46.4708 10240.9 47.9383 10241.3C91.8523 10251.9 174.426 10271.9 257 10297.4C276.456 10303.3 295.912 10309.6 315.368 10315.8C381.246 10337 447.123 10358.2 513 10368C598.333 10380.5 683.667 10374 769 10339.6C790.743 10330.9 812.485 10320.3 834.227 10309.8C897.818 10279 961.409 10248.1 1025 10262.3C1110.33 10281.4 1195.67 10381.5 1238.33 10431.7Z" fill="url(#paint13_linear_114_90)"/>
<path id="layer6" d="M1281 10659.6L1227.67 10710.2C1174.34 10760.8 1067.67 10862 961.004 10850C854.337 10838.1 747.671 10713 641.004 10683.7C534.337 10654.3 427.671 10720.6 321.004 10685.2C214.337 10649.6 107.671 10512.3 54.3372 10443.6L1.00384 10374.9V9904H54.3372C107.671 9904 214.337 9904 321.004 9904C427.671 9904 534.337 9904 641.004 9904C747.671 9904 854.337 9904 961.004 9904C1067.67 9904 1174.34 9904 1227.67 9904H1281V10659.6Z" fill="url(#paint14_linear_114_90)"/>
<path id="layer5" d="M1281 10453.8L1238.34 10462.6C1195.67 10471.5 1110.34 10489.1 1025 10507.6C939.671 10526.1 854.337 10545.5 769.004 10493.3C683.671 10441.1 598.337 10317.5 513.004 10300.5C427.671 10283.6 342.337 10373.1 257.004 10366.5C171.671 10359.8 86.3372 10256.9 43.6705 10205.4L1.00384 10153.9V9550H43.6705C86.3372 9550 171.671 9550 257.004 9550C342.337 9550 427.671 9550 513.004 9550C598.337 9550 683.671 9550 769.004 9550C854.337 9550 939.671 9550 1025 9550C1110.34 9550 1195.67 9550 1238.34 9550H1281V10453.8Z" fill="url(#paint15_linear_114_90)"/>
<path id="layer4" d="M1281 10316L1238.34 10258.2C1195.67 10200.4 1110.34 10084.9 1025 10017.8C939.671 9950.7 854.337 9932.17 769.004 9932.67C683.671 9933.17 598.337 9952.7 513.004 9983.28C427.671 10013.9 342.337 10055.3 257.004 10021.8C171.671 9988.26 86.3372 9879.68 43.6705 9825.39L1.00378 9771.09V9275H43.6705C86.3372 9275 171.671 9275 257.004 9275C342.337 9275 427.671 9275 513.004 9275C598.337 9275 683.671 9275 769.004 9275C854.337 9275 939.671 9275 1025 9275C1110.34 9275 1195.67 9275 1238.34 9275H1281V10316Z" fill="#2C3E4F"/>
<path id="layer3" d="M1281 9402L1238.34 9442.2C1195.67 9482.3 1110.34 9562.7 1025 9572.2C939.671 9581.7 854.337 9520.3 769.004 9526.8C683.671 9533.3 598.337 9607.7 513.004 9691.8C427.671 9776 342.337 9870 257.004 9945C171.671 10020 86.3372 10076 43.6705 10104L1.00378 10132V8734H43.6705C86.3372 8734 171.671 8734 257.004 8734C342.337 8734 427.671 8734 513.004 8734C598.337 8734 683.671 8734 769.004 8734C854.337 8734 939.671 8734 1025 8734C1110.34 8734 1195.67 8734 1238.34 8734H1281V9402Z" fill="url(#paint16_linear_114_90)"/>
<path id="layer2" d="M1281 9433L1238.34 9394.12C1195.67 9355.23 1110.34 9277.47 1025 9285.24C939.671 9293.12 854.337 9386.44 769.004 9410.07C683.671 9433.7 598.337 9387.44 513.004 9374.67C427.671 9361.91 342.337 9382.45 257.004 9306.08C171.671 9229.61 86.3372 9056.13 43.6705 8969.39L1.00378 8882.65V8053H1281V9433Z" fill="#2C3E4F"/>
<path id="layer1" d="M1281 8918.83L1238.34 8931.03C1195.67 8943.12 1110.34 8967.52 1025 8958.62C939.671 8949.82 854.337 8907.83 769.004 8914.33C683.671 8920.83 598.337 8975.82 513.004 9062.1C427.671 9148.48 342.337 9266.06 257.004 9318.25C171.671 9370.44 86.3372 9357.04 43.6705 9350.44L1.00378 9343.75L1.00378 8052H43.6705C86.3372 8052 171.671 8052 257.004 8052C342.337 8052 427.671 8052 513.004 8052C598.337 8052 683.671 8052 769.004 8052C854.337 8052 939.671 8052 1025 8052C1110.34 8052 1195.67 8052 1238.34 8052H1281L1281 8918.83Z" fill="url(#paint17_linear_114_90)"/>
<path id="Vector_13_2" d="M1281.01 8980L1245.49 8950.94C1209.87 8921.79 1138.83 8863.67 1067.68 8852.91C996.533 8842.15 925.499 8878.92 854.352 8882.56C783.206 8886.21 712.166 8856.89 641.019 8793.01C569.872 8729.21 498.832 8630.93 427.686 8577.72C356.539 8524.43 285.499 8516.29 214.352 8577.3C143.206 8638.3 72.1654 8768.44 36.5386 8833.59L1.01863 8898.66L1.01367 8053H1281.01V8980Z" fill="url(#paint18_linear_114_90)"/>
<path id="Vector_15" d="M1.00391 8503L36.5038 8457.5C72.0038 8412 143.004 8321 214.204 8328.3C285.304 8335.7 356.704 8441.3 427.804 8466.8C499.004 8492.3 570.004 8437.7 641.004 8391C712.004 8344.3 783.004 8305.7 854.204 8284.2C925.304 8262.7 996.704 8258.3 1067.8 8263.8C1139 8269.3 1210 8284.7 1245.5 8292.3L1281 8300V7388C1209.9 7388 72.1039 7388 1.00391 7388V8503Z" fill="url(#paint19_linear_114_90)"/>
<path id="Vector_16" d="M1.00762 8257L31.5076 8217.2C62.0076 8177.3 123.008 8097.7 184.008 8049.2C245.008 8000.7 283 7990 354.5 7990C426 7990 563 8087.33 723.5 8079.5C884 8071.67 994.5 7872.5 1055.5 7903C1116.5 7933.5 1281.01 8088.5 1281.01 8088.5V7387H1.00391L1.00762 8257Z" fill="url(#paint20_linear_114_90)"/>
<path id="Vector_17" d="M1.00391 7692L36.5039 7655.2C72.0039 7618.3 143.004 7544.7 214.204 7503.3C285.304 7462 356.704 7453 427.804 7458.7C499.004 7464.3 570.004 7484.7 641.004 7509.7C712.004 7534.7 783.004 7564.3 854.204 7540.5C925.304 7516.7 996.704 7439.3 1067.8 7408.7C1139 7378 1210 7394 1245.5 7402L1281 7410V7082H1245.5C1210 7082 1139 7082 1067.8 7082C996.704 7082 925.304 7082 854.204 7082C783.004 7082 712.004 7082 641.004 7082C570.004 7082 499.004 7082 427.804 7082C356.704 7082 285.304 7082 214.204 7082C143.004 7082 72.0039 7082 36.5039 7082H1.00391V7692Z" fill="url(#paint21_linear_114_90)"/>
<path id="Vector_18" d="M1.00391 6857L36.5039 6849C72.0039 6841 143.004 6825 214.204 6843.8C285.304 6862.7 356.704 6916.3 427.804 7004.7C499.004 7093 570.004 7216 641.004 7271.8C712.004 7327.7 783.004 7316.3 854.204 7278.8C925.304 7241.3 996.704 7177.7 1067.8 7191.3C1139 7205 1210 7296 1245.5 7341.5L1281 7387V6662H1245.5C1210 6662 1139 6662 1067.8 6662C996.704 6662 925.304 6662 854.204 6662C783.004 6662 712.004 6662 641.004 6662C570.004 6662 499.004 6662 427.804 6662C356.704 6662 285.304 6662 214.204 6662C143.004 6662 72.0039 6662 36.5039 6662H1.00391V6857Z" fill="url(#paint22_linear_114_90)"/>
<path id="Vector_19" d="M1281 6801L1245.5 6793C1210 6785 1139 6769 1067.8 6787.8C996.704 6806.7 925.304 6860.3 854.204 6948.7C783.004 7037 712.004 7160 641.004 7215.8C570.004 7271.7 499.004 7260.3 427.804 7222.8C356.704 7185.3 285.304 7121.7 214.204 7135.3C143.004 7149 72.0039 7240 36.5039 7285.5L1.00391 7331V4886H1281V6801Z" fill="url(#paint23_linear_114_90)"/>
<path id="Union_2" fill-rule="evenodd" clip-rule="evenodd" d="M1.00989 4755V4998H1.00977V5888L31.4098 5879.04H31.4103C61.8105 5870.08 122.61 5852.16 183.623 5852.66C210.253 5852.88 236.943 5856.61 263.642 5860.35C298.007 5865.17 332.386 5869.98 366.663 5867.29C402.438 5864.43 438.14 5853.46 473.855 5842.48C499.05 5834.74 524.252 5827 549.49 5822.1C584.409 5815.36 619.433 5814.12 654.441 5812.89C680.496 5811.97 706.542 5811.05 732.53 5807.86C793.543 5800.39 854.343 5780.48 915.357 5753.11C942.986 5740.69 970.681 5726.73 998.383 5712.77C1031.75 5695.96 1065.12 5679.14 1098.4 5665C1159.41 5639.12 1220.21 5622.19 1250.61 5613.73L1281.01 5605.27L1281.01 5552.31L1281.01 4998L1281.01 4755H1250.61H1098.4H915.357H732.53H549.49H366.663H183.623H31.4099H1.00989Z" fill="url(#paint24_linear_114_90)"/>
<path id="Vector_9_2" d="M0.999878 5466.12L11.5 5288C100.919 5281.58 96.636 5354.07 157.5 5343.5C218.517 5332.72 305.782 5542.8 366.795 5519.39C427.667 5495.75 488.822 5589.85 549.693 5676.9C610.707 5763.95 649.487 5824.11 710.5 5764C771.371 5703.9 879.129 5720.12 940 5631C1001.01 5541.88 1054.5 5634.38 1117 5599C1179.5 5563.62 1250.42 5493.48 1281 5519.39V5544.88L1281 6262H1250.42C1219.84 6262 1158.69 6262 1097.82 6262C1036.8 6262 976.218 6262 915.205 6262C854.333 6262 793.178 6262 732.307 6262C671.293 6262 610.707 6262 549.693 6262C488.822 6262 427.667 6262 366.795 6262C305.782 6262 245.195 6262 184.179 6262C123.315 6262 62.152 6262 31.5813 6262H0.999878L0.999878 5466.12Z" fill="#2C3E4F"/>
<path id="Vector_2_2" d="M1281.01 4966.46L1250.43 4992.21C1219.86 5017.71 1158.7 5069.25 1097.83 5166.19C1036.81 5263.13 976.228 5405.5 915.215 5390.62C854.343 5375.48 793.188 5202.84 732.316 5129.01C671.303 5054.9 610.716 5079.86 549.703 5069.25C488.832 5058.62 427.676 5012.4 366.805 4999.13C305.792 4985.84 245.205 5005.5 184.192 5093.41C123.321 5181.6 62.1653 5338.3 31.5875 5416.65L1.00977 5495V4414H31.5875C62.1653 4414 123.321 4414 184.192 4414C245.205 4414 305.792 4414 366.805 4414C427.676 4414 488.832 4414 549.703 4414C610.716 4414 671.303 4414 732.316 4414C793.188 4414 854.343 4414 915.215 4414C976.228 4414 1036.81 4414 1097.83 4414C1158.7 4414 1219.86 4414 1250.43 4414H1281.01V4966.46Z" fill="url(#paint25_linear_114_90)"/>
<path id="Union_3" fill-rule="evenodd" clip-rule="evenodd" d="M1.00977 3700V4388V4611.27V5119.21L43.6765 5100.07C86.3431 5081.19 171.676 5042.9 257.01 4988.39C279.359 4974.12 301.708 4958.73 324.056 4943.34C387.041 4899.98 450.025 4856.61 513.01 4838.17C598.343 4813.44 683.677 4834.71 769.01 4972.44C813.196 5043.89 889.287 5091.95 964.243 5139.29C1034.05 5183.38 1102.86 5226.84 1144.01 5288C1183.83 5347.18 1207.02 5403.12 1224.78 5445.93C1245.07 5494.86 1258.25 5526.64 1281.01 5526.5V4894V4388V3700H1.00977Z" fill="#2C3E4F"/>
<path id="Vector_6_2" d="M1281 4800L1250.42 4784.8C1219.85 4769.87 1158.69 4739.47 1097.83 4728.53C1036.81 4717.33 976.222 4725.33 915.209 4669.87C854.337 4614.13 793.182 4495.2 732.311 4418.13C671.297 4341.33 610.711 4306.67 549.697 4376.53C488.826 4446.13 427.671 4620.53 366.799 4621.87C305.786 4623.2 245.199 4451.47 184.186 4366.67C123.315 4281.87 62.1595 4283.47 31.5816 4284.53L1.00391 4285.33V3538C31.5817 3538 1220.13 3538 1281 3538V4800Z" fill="url(#paint26_linear_114_90)"/>
<path id="Vector_7_2" d="M1281.01 4071.89L1259.68 4072.95C1238.34 4073.86 1195.68 4075.99 1153.01 4058.99C1110.34 4042 1067.68 4006.19 1025.01 3973.26C982.345 3940.34 939.676 3910.6 897.01 3933.51C854.343 3956.57 811.676 4032.44 769.01 4087.52C726.343 4142.75 683.676 4177.04 641.01 4209.21C598.343 4241.38 555.676 4271.12 513.01 4239.56C470.343 4208 427.676 4114.83 385.01 4040.03C342.343 3965.22 299.676 3908.47 257.01 3917.58C214.343 3926.68 171.676 4001.64 129.01 4019.54C86.343 4037.45 43.6765 3998.6 22.3432 3979.03L1.00977 3959.61V2956C43.6764 2956 1238.34 2956 1281.01 2956V4071.89Z" fill="#2C3E4F"/>
<path id="Vector_9_3" d="M1281.01 4134.5L1250.43 4043.48C1219.86 3952.15 1158.7 3770.13 1097.83 3786.25C1036.81 3802.69 976.228 4017.57 915.215 4053.27C854.343 4089.31 793.188 3945.84 732.316 3813.11C671.303 3680.39 610.716 3558.4 549.703 3650.05C488.832 3741.68 427.676 4046.96 366.805 4182.84C305.792 4318.72 245.205 4285.24 184.192 4228.67C123.321 4172.41 62.1653 4093.41 31.5875 4053.91L1.00977 4014.4V2921H31.5875C62.1653 2921 123.321 2921 184.192 2921C245.205 2921 305.792 2921 366.805 2921C427.676 2921 488.832 2921 549.703 2921C610.716 2921 671.303 2921 732.316 2921C793.188 2921 854.343 2921 915.215 2921C976.228 2921 1036.81 2921 1097.83 2921C1158.7 2921 1219.86 2921 1250.43 2921H1281.01V4134.5Z" fill="url(#paint27_linear_114_90)"/>
<path id="Vector_10_2" d="M1281.01 3459.22L1250.43 3471.01C1219.86 3482.8 1158.7 3506.39 1097.83 3537.37C1036.81 3568.18 976.228 3606.55 915.215 3561.11C854.343 3515.82 793.188 3386.88 732.316 3373.05C671.303 3359.05 610.716 3460.32 549.703 3503.72C488.832 3547.27 427.676 3533.12 366.805 3460C305.792 3386.88 245.205 3254.8 184.192 3196.62C123.321 3138.44 62.1653 3154.17 31.5875 3162.03L1.00977 3169.89V2890H31.5875C62.1653 2890 123.321 2890 184.192 2890C245.205 2890 305.792 2890 366.805 2890C427.676 2890 488.832 2890 549.703 2890C610.716 2890 671.303 2890 732.316 2890C793.188 2890 854.343 2890 915.215 2890C976.228 2890 1036.81 2890 1097.83 2890C1158.7 2890 1219.86 2890 1250.43 2890H1281.01V3459.22Z" fill="url(#paint28_linear_114_90)"/>
<path id="Union_4" fill-rule="evenodd" clip-rule="evenodd" d="M43.6764 2281.67L1.00977 2331.72V2807V2866V3270L27.6053 3254.3L27.7182 3254.23C54.2097 3238.61 107.326 3207.29 160.583 3198.5C180.561 3195.2 200.559 3195.05 220.562 3194.9C253.959 3194.64 287.37 3194.38 320.725 3179.5C354.174 3164.57 387.568 3134.86 420.976 3105.13C440.835 3087.45 460.699 3069.78 480.583 3055.2C533.917 3016 587.392 2999 640.725 2985.8C694.058 2972.7 747.25 2963.3 800.583 2993.8C823.654 3006.99 846.75 3027.65 869.851 3048.32C900.153 3075.42 930.462 3102.53 960.725 3112.8C992.038 3123.49 1023.3 3116.18 1054.57 3108.87C1076.57 3103.73 1098.56 3098.59 1120.58 3099.7C1173.33 3102.27 1226.22 3140.84 1253.38 3160.65L1254.27 3161.3L1281.01 3181V2866V2807V2080L1238.34 2090.25L1234.07 2091.28C1190.16 2101.93 1107.58 2121.94 1025.01 2147.36C1005.55 2153.32 986.098 2159.58 966.642 2165.84C900.764 2187.04 834.887 2208.24 769.01 2218C683.677 2230.53 598.343 2223.97 513.01 2189.64C491.267 2180.9 469.525 2170.35 447.782 2159.8C384.192 2128.95 320.601 2098.1 257.01 2112.34C171.676 2131.44 86.3431 2231.53 43.6764 2281.67Z" fill="#2C3E4F"/>
<path id="layer6_2" d="M1.00977 2607.59L54.3431 2658.16C107.676 2708.83 214.343 2809.97 321.01 2798.03C427.676 2786.08 534.343 2661.05 641.01 2631.68C747.676 2602.31 854.343 2668.61 961.01 2633.17C1067.68 2597.63 1174.34 2460.25 1227.68 2391.56L1281.01 2322.87V1852H1227.68C1174.34 1852 1067.68 1852 961.01 1852C854.343 1852 747.676 1852 641.01 1852C534.343 1852 427.676 1852 321.01 1852C214.343 1852 107.676 1852 54.3431 1852H1.00977V2607.59Z" fill="url(#paint29_linear_114_90)"/>
<path id="layer5_2" d="M1.00977 2401.82L43.6764 2410.62C86.3431 2419.51 171.676 2437.11 257.01 2455.61C342.343 2474.1 427.676 2493.5 513.01 2441.31C598.343 2389.12 683.676 2265.55 769.01 2248.55C854.343 2231.55 939.676 2321.13 1025.01 2314.54C1110.34 2307.84 1195.68 2204.86 1238.34 2153.37L1281.01 2101.88V1498H1238.34C1195.68 1498 1110.34 1498 1025.01 1498C939.676 1498 854.343 1498 769.01 1498C683.676 1498 598.343 1498 513.01 1498C427.676 1498 342.343 1498 257.01 1498C171.676 1498 86.3431 1498 43.6764 1498H1.00977V2401.82Z" fill="url(#paint30_linear_114_90)"/>
<path id="layer4_2" d="M1.00977 2264L43.6764 2206.22C86.3431 2148.44 171.676 2032.89 257.01 1965.85C342.343 1898.7 427.676 1880.17 513.01 1880.67C598.343 1881.17 683.676 1900.7 769.01 1931.28C854.343 1961.86 939.676 2003.3 1025.01 1969.83C1110.34 1936.26 1195.68 1827.68 1238.34 1773.39L1281.01 1719.09V1223H1238.34C1195.68 1223 1110.34 1223 1025.01 1223C939.676 1223 854.343 1223 769.01 1223C683.676 1223 598.343 1223 513.01 1223C427.676 1223 342.343 1223 257.01 1223C171.676 1223 86.3431 1223 43.6764 1223H1.00977V2264Z" fill="#2C3E4F"/>
<path id="layer3_2" d="M1.00977 1350L43.6764 1390.2C86.3431 1430.3 171.676 1510.7 257.01 1520.2C342.343 1529.7 427.676 1468.3 513.01 1474.8C598.343 1481.3 683.676 1555.7 769.01 1639.8C854.343 1724 939.676 1818 1025.01 1893C1110.34 1968 1195.68 2024 1238.34 2052L1281.01 2080V682H1238.34C1195.68 682 1110.34 682 1025.01 682C939.676 682 854.343 682 769.01 682C683.676 682 598.343 682 513.01 682C427.676 682 342.343 682 257.01 682C171.676 682 86.3431 682 43.6764 682H1.00977V1350Z" fill="url(#paint31_linear_114_90)"/>
<path id="layer2_2" d="M1.00977 1381L43.6764 1342.12C86.3431 1303.23 171.676 1225.47 257.01 1233.24C342.343 1241.12 427.676 1334.44 513.01 1358.07C598.343 1381.7 683.676 1335.44 769.01 1322.67C854.343 1309.91 939.676 1330.45 1025.01 1254.08C1110.34 1177.61 1195.68 1004.13 1238.34 917.389L1281.01 830.649V0L1.00977 1.00002V1381Z" fill="#2C3E4F"/>
<path id="Union_5" fill-rule="evenodd" clip-rule="evenodd" d="M1242.3 38.9154L1281 15V420.294V420.706V760.165L1237.87 705.517L1237.53 705.006C1202.12 651.222 1131.93 544.644 1061.64 494.602C991.128 444.4 920.72 451.094 850.207 494.95C810.272 519.749 770.37 556.446 730.464 593.148C699.909 621.248 669.352 649.352 638.774 672.119C568.261 724.69 497.854 748.816 427.341 745.817C398.376 744.586 369.432 738.754 340.493 732.922C298.982 724.558 257.48 716.196 215.933 721.414C145.428 730.267 75.0291 778.088 39.7158 802.076L39.7037 802.084L1 826V420.706V420.294V80.8346L44.1291 135.483L44.4654 135.994C79.8841 189.778 150.069 296.356 220.359 346.398C290.872 396.6 361.28 389.906 431.793 346.05C471.728 321.251 511.63 284.553 551.536 247.852C582.091 219.751 612.648 191.648 643.226 168.881C713.739 116.309 784.146 92.1842 854.659 95.1825C883.624 96.4142 912.568 102.246 941.507 108.077C983.017 116.441 1024.52 124.804 1066.07 119.586C1136.57 110.732 1206.97 62.9114 1242.28 38.9236L1242.3 38.9154Z" fill="url(#paint32_linear_114_90)"/>
<path id="Vector_9_4" d="M1281.01 6776.88L1250.43 6717.19C1219.86 6657.29 1158.7 6537.91 1097.83 6548.48C1036.81 6559.26 976.228 6700.2 915.215 6723.61C854.343 6747.25 793.188 6653.15 732.316 6566.1C671.303 6479.05 610.716 6399.04 549.703 6459.15C488.832 6519.25 427.676 6719.47 366.805 6808.59C305.792 6897.71 245.205 6875.75 184.192 6838.64C123.321 6801.75 62.1653 6749.93 31.5875 6724.03L1.00977 6698.12L1.00977 5981H31.5875C62.1653 5981 123.321 5981 184.192 5981C245.205 5981 305.792 5981 366.805 5981C427.676 5981 488.832 5981 549.703 5981C610.716 5981 671.303 5981 732.316 5981C793.188 5981 854.343 5981 915.215 5981C976.228 5981 1036.81 5981 1097.83 5981C1158.7 5981 1219.86 5981 1250.43 5981H1281.01L1281.01 6776.88Z" fill="#2C3E4F"/>
<path id="Union_6" fill-rule="evenodd" clip-rule="evenodd" d="M31.5911 5905.21L1.00964 5963.73V6239H1.01013V6270.55L31.5879 6305.17C62.1657 6339.78 123.322 6409.01 184.192 6434.06C228.323 6452.07 272.23 6447.05 316.237 6442.02C333.073 6440.09 349.923 6438.17 366.805 6437.53C427.677 6435.39 488.832 6450.22 549.704 6481.21C558.447 6485.67 567.182 6490.47 575.911 6495.26C628.091 6523.89 680.047 6552.4 732.317 6509.89C759.398 6487.74 786.536 6446.41 813.68 6405.07C847.548 6353.49 881.425 6301.9 915.215 6287.53C947.715 6273.83 980.094 6294.37 1012.48 6314.92C1040.9 6332.94 1069.32 6350.97 1097.83 6345.88C1158.7 6334.84 1219.86 6217.81 1250.43 6159.29L1281.01 6100.77V5825.5L1281.01 5793.95L1250.43 5759.33C1219.85 5724.72 1158.7 5655.49 1097.83 5630.44C1053.7 5612.43 1009.79 5617.45 965.783 5622.48C948.947 5624.41 932.097 5626.33 915.215 5626.97C854.343 5629.11 793.188 5614.28 732.316 5583.29C723.573 5578.83 714.838 5574.03 706.109 5569.24C653.929 5540.61 601.973 5512.1 549.703 5554.61C522.621 5576.76 495.484 5618.09 468.34 5659.43C434.472 5711.01 400.595 5762.6 366.805 5776.97C334.305 5790.67 301.926 5770.13 269.539 5749.58C241.124 5731.56 212.703 5713.53 184.188 5718.62C123.324 5729.66 62.1617 5846.69 31.5911 5905.21Z" fill="url(#paint33_linear_114_90)"/>
<path id="Union_7" fill-rule="evenodd" clip-rule="evenodd" d="M1151.15 5897.99C1152.71 5898.32 1154.27 5898.5 1155.84 5898.5C1155.84 5898.5 1208.84 5899.46 1227.84 5919.48C1228.93 5920.63 1230.29 5922.02 1231.86 5923.61C1257.63 5949.79 1339.63 6033.09 1209.84 6083L1166.84 6125C1146.85 6156.71 1075.86 6195.45 1036.06 6201.43C1017.41 6204.19 998.826 6194.42 980.246 6184.65C959.067 6173.52 937.895 6162.39 916.643 6169.82C894.547 6177.6 872.395 6205.55 850.249 6233.5C832.499 6255.9 814.753 6278.29 797.045 6290.29C762.865 6313.32 728.89 6297.88 694.77 6282.36C689.062 6279.77 683.35 6277.17 677.633 6274.75C637.829 6257.96 597.839 6249.93 558.034 6251.08C546.995 6251.43 535.976 6252.48 524.967 6253.52C496.191 6256.24 467.48 6258.96 438.622 6249.21C398.819 6235.64 358.829 6198.13 338.834 6179.37L318.839 6160.62C316.421 6156.54 314.036 6152.26 311.627 6147.94C298.694 6124.73 285.1 6100.33 262.339 6100.33C235.338 6100.33 260.369 6034.82 297.838 6003C306.507 5999.45 313.959 5995.96 320.495 5992.3C325.289 5986.23 338.836 5968.57 338.836 5962.67C338.836 5955.5 398.821 5867.55 438.62 5861.57C457.266 5858.81 475.851 5868.58 494.431 5878.35C515.61 5889.48 536.782 5900.61 558.034 5893.18C580.13 5885.4 602.282 5857.45 624.429 5829.5C642.178 5807.1 659.924 5784.71 677.632 5772.71C711.812 5749.68 745.787 5765.12 779.907 5780.64C785.615 5783.23 791.327 5785.83 797.044 5788.25C836.849 5805.04 876.838 5813.07 916.643 5811.92C927.682 5811.57 938.701 5810.53 949.71 5809.48C978.486 5806.76 1007.2 5804.04 1036.05 5813.79C1075.86 5827.37 1115.85 5864.88 1135.84 5883.63L1151.15 5897.99Z" fill="url(#paint34_linear_114_90)"/>
<path id="Union_8" fill-rule="evenodd" clip-rule="evenodd" d="M328.52 7826.86C299.878 7830.98 274.658 7834.61 260 7850.39C264.116 7852.4 269.744 7855.11 276.471 7858.34C309.504 7874.23 369.024 7902.85 405.971 7924.74C412.635 7928.69 418.435 7932.24 423.753 7935.49C451.574 7952.51 466.171 7961.44 522 7977.39C550.7 7985.59 569.062 7983.12 589.663 7980.34C619.31 7976.35 653.595 7971.73 730 7997.39C857.567 8040.24 937.975 8033.3 986.857 8029.08C987.598 8029.02 988.332 8028.95 989.058 8028.89C1008.71 8027.21 1028.37 8022.69 1048.03 8018.17C1077.03 8011.5 1106.03 8004.83 1135.03 8007.29C1183.56 8011.4 1232.09 8041.07 1256.48 8055.98L1256.67 8056.09L1281 8071V7850.39V7535L1256.67 7545.16C1249.85 7547.99 1239.93 7551.06 1228.12 7554.71C1197.81 7564.08 1155.01 7577.31 1120 7600.39C1095.84 7616.34 1071 7637.81 1047.29 7658.3C1023.25 7679.09 1000.36 7698.87 980.5 7710.89C934.942 7733.01 891.744 7742.95 843.246 7738.45C826.791 7736.93 804.015 7730.1 778.29 7722.39C728.07 7707.33 666.611 7688.91 619 7700C576.374 7709.93 520.604 7742.23 471.845 7770.48C438.244 7789.95 407.973 7807.48 387.625 7814.44C367.801 7821.22 347.416 7824.15 328.52 7826.86Z" fill="url(#paint35_linear_114_90)"/>
<path id="Union_9" fill-rule="evenodd" clip-rule="evenodd" d="M42.6666 862.027L0 849.829V644H0.057251L0.057251 13.2549L42.724 6.55627L43.1135 6.49609C85.9084 -0.123047 170.983 -13.2815 256.057 38.7499C313.83 74.0834 371.602 139.387 429.375 204.691C456.936 235.845 484.497 266.999 512.058 294.899C597.391 381.182 682.724 436.172 768.058 442.67C818.715 446.528 869.371 433.298 920.028 420.068C954.705 411.011 989.381 401.954 1024.06 398.379C1108.88 389.534 1193.71 413.587 1236.62 425.757L1237.39 425.974L1280.06 438.171V644H1280V1274.75L1237.33 1281.44L1236.94 1281.5C1194.15 1288.12 1109.07 1301.28 1024 1249.25C966.227 1213.92 908.454 1148.61 850.682 1083.31C823.121 1052.15 795.56 1021 767.999 993.101C682.666 906.818 597.332 851.829 511.999 845.33C461.342 841.472 410.685 854.703 360.028 867.933C325.352 876.989 290.676 886.046 255.999 889.621C171.173 898.467 86.3475 874.413 43.4319 862.244L42.6666 862.027Z" fill="url(#paint36_linear_114_90)"/>
<path id="Union_10" fill-rule="evenodd" clip-rule="evenodd" d="M1242.3 29.0614L1281 0.000152588V460V461.5V843.5L1237.87 777.093L1237.53 776.472C1202.12 711.115 1131.93 581.605 1061.64 520.796C991.128 459.793 920.72 467.927 850.207 521.219C810.272 551.354 770.37 595.948 730.464 640.546C699.909 674.693 669.352 708.843 638.774 736.509C568.261 800.392 497.854 829.708 427.341 826.065C398.376 824.568 369.432 817.481 340.493 810.395C298.982 800.232 257.48 790.07 215.933 796.41C145.428 807.169 75.0289 865.28 39.7157 894.429L39.7037 894.439L1 923.5V461.5V460V80.0002L44.1291 146.407L44.4654 147.028C79.8841 212.385 150.069 341.895 220.359 402.704C290.872 463.707 361.28 455.573 431.793 402.281C471.728 372.146 511.63 327.553 551.536 282.954C582.091 248.807 612.648 214.657 643.226 186.991C713.739 123.108 784.146 93.7918 854.659 97.4353C883.624 98.932 912.568 106.019 941.507 113.105C983.017 123.268 1024.52 133.43 1066.07 127.09C1136.57 116.331 1206.97 58.2204 1242.28 29.0713L1242.3 29.0614Z" fill="url(#paint37_linear_114_90)"/>
<path id="Vector_14_2" d="M0 362.5C0 362.5 190.5 559.5 368 486.5C545.5 413.5 540.131 322.673 688.99 214C714.655 195.264 738.434 177.918 760.087 162.133C840.144 103.77 944.805 126.154 1024 185.681V185.681C1066.67 217.661 1109.33 284.495 1152 322.673C1194.67 360.851 1237.33 370.374 1258.67 375.224L1280 379.985V0H1258.67C1237.33 0 1194.67 0 1152 0C1109.33 0 1066.67 0 1024 0C981.334 0 938.667 0 896.001 0C853.334 0 810.667 0 768.001 0C725.334 0 682.667 0 640.001 0C597.334 0 554.667 0 512 0C469.334 0 426.667 0 384 0C341.334 0 298.667 0 256 0C213.334 0 170.667 0 128 0C85.3334 0 42.6667 0 21.3334 0H0V362.5Z" fill="url(#paint38_linear_114_90)"/>
<path id="Vector_20" d="M1281.36 12954V12663C1222.38 12690.3 1175.91 12735.5 1076.99 12741.4C978.098 12747.1 883.855 12711.2 797.998 12741.4C712.077 12771.6 605.852 12883.2 580 12966.5C554.148 13049.8 523.498 13209 613.998 13183C706.998 13154 862.455 13064.9 944.998 13061C1027.56 13057 1127 13133.5 1192.5 13126.5C1258 13119.5 1281.36 13049.5 1281.36 12954Z" fill="url(#paint39_linear_114_90)"/>
</g>
<defs>
<linearGradient id="paint0_linear_114_90" x1="302" y1="15744.5" x2="1321" y2="16510" gradientUnits="userSpaceOnUse">
<stop stop-color="#EF96C5"/>
<stop offset="1" stop-color="#2C3E4F" stop-opacity="0"/>
</linearGradient>
<linearGradient id="paint1_linear_114_90" x1="1110" y1="15244" x2="640" y2="15904" gradientUnits="userSpaceOnUse">
<stop stop-color="#D7EDE1"/>
<stop offset="1" stop-color="#014872"/>
</linearGradient>
<linearGradient id="paint2_linear_114_90" x1="1146" y1="14972.5" x2="42.5" y2="15750.5" gradientUnits="userSpaceOnUse">
<stop stop-color="#CCFBFF"/>
<stop offset="1" stop-color="#EF96C5"/>
</linearGradient>
<linearGradient id="paint3_linear_114_90" x1="1646.5" y1="15581.5" x2="-253" y2="14452" gradientUnits="userSpaceOnUse">
<stop stop-color="#D7EDE1"/>
<stop offset="0.84375" stop-color="#014872"/>
</linearGradient>
<linearGradient id="paint4_linear_114_90" x1="899" y1="14339" x2="640" y2="14980" gradientUnits="userSpaceOnUse">
<stop stop-color="#D7EDE1"/>
<stop offset="1" stop-color="#D7EDE1" stop-opacity="0.48"/>
</linearGradient>
<linearGradient id="paint5_linear_114_90" x1="1128" y1="13893" x2="0.000123517" y2="14832" gradientUnits="userSpaceOnUse">
<stop stop-color="#09203F"/>
<stop offset="1" stop-color="#00CDAC" stop-opacity="0"/>
</linearGradient>
<linearGradient id="paint6_linear_114_90" x1="772.5" y1="13314" x2="326" y2="14537" gradientUnits="userSpaceOnUse">
<stop stop-color="#662D8C"/>
<stop offset="1" stop-color="#ED1E79" stop-opacity="0"/>
</linearGradient>
<linearGradient id="paint7_linear_114_90" x1="641" y1="12764.5" x2="641" y2="13642" gradientUnits="userSpaceOnUse">
<stop stop-color="#FBDA61"/>
<stop offset="1" stop-color="#FF5ACD"/>
</linearGradient>
<linearGradient id="paint8_linear_114_90" x1="1088" y1="12651" x2="135" y2="13215.5" gradientUnits="userSpaceOnUse">
<stop stop-color="#FFA24A"/>
<stop offset="1" stop-color="#FFCC70" stop-opacity="0.61"/>
</linearGradient>
<linearGradient id="paint9_linear_114_90" x1="53.5" y1="12227" x2="856.5" y2="13019.5" gradientUnits="userSpaceOnUse">
<stop stop-color="#2C3E50"/>
<stop offset="1" stop-color="#2980B9"/>
</linearGradient>
<linearGradient id="paint10_linear_114_90" x1="1068" y1="11671" x2="326" y2="12512" gradientUnits="userSpaceOnUse">
<stop stop-color="#F29492"/>
<stop offset="1" stop-color="#114357" stop-opacity="0.31"/>
</linearGradient>
<linearGradient id="paint11_linear_114_90" x1="303" y1="11142" x2="791.5" y2="12319.5" gradientUnits="userSpaceOnUse">
<stop stop-color="#FC00FF"/>
<stop offset="1" stop-color="#00DBDE"/>
</linearGradient>
<linearGradient id="paint12_linear_114_90" x1="1281" y1="11060.5" x2="-288.5" y2="11863.5" gradientUnits="userSpaceOnUse">
<stop stop-color="#360033"/>
<stop offset="1" stop-color="#0B8793" stop-opacity="0.76"/>
</linearGradient>
<linearGradient id="paint13_linear_114_90" x1="0.999984" y1="10428.5" x2="1130.5" y2="11149" gradientUnits="userSpaceOnUse">
<stop stop-color="#4B6CB7"/>
<stop offset="1" stop-color="#182848"/>
</linearGradient>
<linearGradient id="paint14_linear_114_90" x1="255.504" y1="10408" x2="1281" y2="10640" gradientUnits="userSpaceOnUse">
<stop stop-color="#04ADB3"/>
<stop offset="1" stop-color="#04ADB3" stop-opacity="0.39"/>
</linearGradient>
<linearGradient id="paint15_linear_114_90" x1="215.004" y1="10157" x2="1281" y2="10396" gradientUnits="userSpaceOnUse">
<stop stop-color="#5581CC"/>
<stop offset="1" stop-color="#5581CC" stop-opacity="0.2"/>
</linearGradient>
<linearGradient id="paint16_linear_114_90" x1="143.004" y1="9921" x2="1281" y2="9433" gradientUnits="userSpaceOnUse">
<stop stop-color="#D84F65" stop-opacity="0.96"/>
<stop offset="1" stop-color="#E553F2" stop-opacity="0.1"/>
</linearGradient>
<linearGradient id="paint17_linear_114_90" x1="1281" y1="8913" x2="289.004" y2="8901.5" gradientUnits="userSpaceOnUse">
<stop stop-color="#5581CC" stop-opacity="0.2"/>
<stop offset="1" stop-color="#5581CC"/>
</linearGradient>
<linearGradient id="paint18_linear_114_90" x1="1281.02" y1="8648.5" x2="1.01369" y2="8669.5" gradientUnits="userSpaceOnUse">
<stop stop-color="#04ADB3" stop-opacity="0.34"/>
<stop offset="1" stop-color="#2C3E4F" stop-opacity="0.45"/>
</linearGradient>
<linearGradient id="paint19_linear_114_90" x1="392.5" y1="7942" x2="641.003" y2="8503" gradientUnits="userSpaceOnUse">
<stop stop-color="#2C3E50"/>
<stop offset="1" stop-color="#3498DB"/>
</linearGradient>
<linearGradient id="paint20_linear_114_90" x1="340.5" y1="7116" x2="1086.5" y2="7882" gradientUnits="userSpaceOnUse">
<stop stop-color="#1A2A6C"/>
<stop offset="0.463542" stop-color="#B21F1F" stop-opacity="0.79"/>
<stop offset="1" stop-color="#FDBB2D"/>
</linearGradient>
<linearGradient id="paint21_linear_114_90" x1="686" y1="7621.5" x2="-235" y2="7387" gradientUnits="userSpaceOnUse">
<stop stop-color="#1565C0"/>
<stop offset="1" stop-color="#B92B27"/>
</linearGradient>
<linearGradient id="paint22_linear_114_90" x1="536" y1="7315.5" x2="1504.5" y2="6797" gradientUnits="userSpaceOnUse">
<stop stop-color="#009FFF"/>
<stop offset="1" stop-color="#EC2F4B"/>
</linearGradient>
<linearGradient id="paint23_linear_114_90" x1="641" y1="6480" x2="659.5" y2="7301" gradientUnits="userSpaceOnUse">
<stop stop-color="#373B44"/>
<stop offset="1" stop-color="#4286F4"/>
</linearGradient>
<linearGradient id="paint24_linear_114_90" x1="71.0097" y1="5292.5" x2="1224.51" y2="5493" gradientUnits="userSpaceOnUse">
<stop stop-color="#EE74E1"/>
<stop offset="0.484375" stop-color="#7E9BFF"/>
<stop offset="1" stop-color="#3EECAC"/>
</linearGradient>
<linearGradient id="paint25_linear_114_90" x1="1050.01" y1="5284" x2="-289.99" y2="4984" gradientUnits="userSpaceOnUse">
<stop stop-color="#04ADB3"/>
<stop offset="1" stop-color="#04ADB3" stop-opacity="0.71"/>
</linearGradient>
<linearGradient id="paint26_linear_114_90" x1="1004" y1="3772.5" x2="1019.5" y2="4879" gradientUnits="userSpaceOnUse">
<stop stop-color="#2C3E4F"/>
<stop offset="0.0001" stop-color="#FFCC70" stop-opacity="0.998229"/>
<stop offset="0.494792" stop-color="#C850C0" stop-opacity="0.830893"/>
<stop offset="1" stop-color="#4158D0" stop-opacity="0.9"/>
</linearGradient>
<linearGradient id="paint27_linear_114_90" x1="306.01" y1="3345.5" x2="574.01" y2="4243" gradientUnits="userSpaceOnUse">
<stop stop-color="#80D0C7" stop-opacity="0.7"/>
<stop offset="1" stop-color="#0093E9"/>
</linearGradient>
<linearGradient id="paint28_linear_114_90" x1="1281.01" y1="3398" x2="32.5096" y2="3257" gradientUnits="userSpaceOnUse">
<stop stop-color="#F588FF" stop-opacity="0"/>
<stop offset="0.420185" stop-color="#E553F2" stop-opacity="0.33"/>
<stop offset="1" stop-color="#E553F2"/>
</linearGradient>
<linearGradient id="paint29_linear_114_90" x1="1026.51" y1="2356" x2="1.00979" y2="2588" gradientUnits="userSpaceOnUse">
<stop stop-color="#04ADB3"/>
<stop offset="1" stop-color="#04ADB3" stop-opacity="0.39"/>
</linearGradient>
<linearGradient id="paint30_linear_114_90" x1="1067.01" y1="2105" x2="1.00984" y2="2344" gradientUnits="userSpaceOnUse">
<stop stop-color="#5581CC"/>
<stop offset="1" stop-color="#5581CC" stop-opacity="0.2"/>
</linearGradient>
<linearGradient id="paint31_linear_114_90" x1="1139.01" y1="1869" x2="-360.49" y2="1279.5" gradientUnits="userSpaceOnUse">
<stop stop-color="#E73451"/>
<stop offset="0.5625" stop-color="#784BA0" stop-opacity="0.570312"/>
<stop offset="1" stop-color="#2B86C5" stop-opacity="0.1"/>
</linearGradient>
<linearGradient id="paint32_linear_114_90" x1="1281" y1="396.429" x2="1.00001" y2="396.429" gradientUnits="userSpaceOnUse">
<stop stop-color="#B30404"/>
<stop offset="0.0001" stop-color="#2C3E4F" stop-opacity="0.85"/>
<stop offset="1" stop-color="#2C3E4F" stop-opacity="0.45"/>
</linearGradient>
<linearGradient id="paint33_linear_114_90" x1="-101.99" y1="6424" x2="1418.01" y2="5780" gradientUnits="userSpaceOnUse">
<stop stop-color="#8BC6EC"/>
<stop offset="1" stop-color="#9599E2"/>
</linearGradient>
<linearGradient id="paint34_linear_114_90" x1="201.838" y1="6132" x2="1329.84" y2="5964" gradientUnits="userSpaceOnUse">
<stop stop-color="#97D9E1"/>
<stop offset="1" stop-color="#D9AFD9" stop-opacity="0"/>
</linearGradient>
<linearGradient id="paint35_linear_114_90" x1="1329" y1="7911" x2="-840.504" y2="7960.5" gradientUnits="userSpaceOnUse">
<stop stop-color="#2C3E4F"/>
<stop offset="1" stop-color="#2C3E4F" stop-opacity="0.79"/>
</linearGradient>
<linearGradient id="paint36_linear_114_90" x1="73.5001" y1="-362" x2="1312" y2="1267" gradientUnits="userSpaceOnUse">
<stop offset="0.131495" stop-color="#5581CC" stop-opacity="0"/>
<stop offset="1" stop-color="#5581CC"/>
</linearGradient>
<linearGradient id="paint37_linear_114_90" x1="1281" y1="463.5" x2="1.00001" y2="463.5" gradientUnits="userSpaceOnUse">
<stop stop-color="#B30404"/>
<stop offset="0.0001" stop-color="#2C3E4F" stop-opacity="0.85"/>
<stop offset="1" stop-color="#2C3E4F" stop-opacity="0.45"/>
</linearGradient>
<linearGradient id="paint38_linear_114_90" x1="1307.5" y1="-43" x2="294.5" y2="914" gradientUnits="userSpaceOnUse">
<stop stop-color="#F11712"/>
<stop offset="0.565417" stop-color="#CC2B5E" stop-opacity="0.33"/>
<stop offset="1" stop-color="#009FFF" stop-opacity="0.11"/>
</linearGradient>
<linearGradient id="paint39_linear_114_90" x1="1239.5" y1="12784.5" x2="643.5" y2="13161" gradientUnits="userSpaceOnUse">
<stop stop-color="#FEAC5E"/>
<stop offset="0.557292" stop-color="#C779D0" stop-opacity="0.62"/>
<stop offset="1" stop-color="#4BC0C8" stop-opacity="0.46"/>
</linearGradient>
</defs>
</svg>
